<svg data-v-423bf9ae="" xmlns="http://www.w3.org/2000/svg" viewBox="0 0 288 90" class="iconLeft"><!----><!----><!----><g data-v-423bf9ae="" id="621d68ee-05fa-457f-ba86-a28f6959837a" fill="#0C3507" transform="matrix(4.552351951599121,0,0,4.552351951599121,108.99592590332031,-8.444610595703125)"><path d="M6.66 5.15L6.66 16.84L6.66 16.84Q6.66 17.04 6.75 17.20L6.75 17.20L6.75 17.20Q6.85 17.36 7.04 17.36L7.04 17.36L7.04 17.36Q7.24 17.36 7.43 17.19L7.43 17.19L7.43 17.19Q7.63 17.01 7.73 16.80L7.73 16.80L7.99 17.02L7.99 17.02Q7.77 17.50 7.36 17.83L7.36 17.83L7.36 17.83Q6.94 18.16 6.55 18.16L6.55 18.16L6.55 18.16Q5.91 18.16 5.61 17.79L5.61 17.79L5.61 17.79Q5.32 17.43 5.33 16.53L5.33 16.53L5.28 16.53L5.28 16.53Q4.42 18.26 3.19 18.26L3.19 18.26L3.19 18.26Q1.97 18.26 1.32 17.41L1.32 17.41L1.32 17.41Q0.67 16.56 0.67 15.29L0.67 15.29L0.67 15.29Q0.67 14.28 1.11 13.29L1.11 13.29L1.11 13.29Q1.54 12.29 2.35 11.65L2.35 11.65L2.35 11.65Q3.15 11.00 4.20 11.00L4.20 11.00L4.20 11.00Q4.86 11.00 5.35 11.34L5.35 11.34L5.35 5.68L6.66 5.15ZM4.12 11.83L4.12 11.83Q3.33 11.83 2.82 12.32L2.82 12.32L2.82 12.32Q2.31 12.81 2.07 13.50L2.07 13.50L2.07 13.50Q1.83 14.20 1.83 14.80L1.83 14.80L1.83 14.80Q1.83 15.27 2.00 15.85L2.00 15.85L2.00 15.85Q2.17 16.42 2.55 16.84L2.55 16.84L2.55 16.84Q2.93 17.25 3.51 17.25L3.51 17.25L3.51 17.25Q4.58 17.25 4.96 16.33L4.96 16.33L4.96 16.33Q5.35 15.41 5.35 14.31L5.35 14.31L5.35 12.39L5.35 12.39Q5.11 12.14 4.79 11.98L4.79 11.98L4.79 11.98Q4.48 11.83 4.12 11.83L4.12 11.83ZM10.75 6.41L10.28 9.67L9.81 9.84L9.24 6.93L10.75 6.41ZM10.74 11.14L10.74 16.91L10.74 16.91Q10.74 17.12 10.84 17.26L10.84 17.26L10.84 17.26Q10.95 17.39 11.14 17.39L11.14 17.39L11.14 17.39Q11.30 17.39 11.49 17.25L11.49 17.25L11.49 17.25Q11.68 17.11 11.87 16.84L11.87 16.84L12.10 17.05L12.10 17.05Q11.77 17.65 11.32 17.91L11.32 17.91L11.32 17.91Q10.86 18.16 10.49 18.16L10.49 18.16L10.49 18.16Q9.98 18.16 9.71 17.84L9.71 17.84L9.71 17.84Q9.44 17.51 9.44 16.74L9.44 16.74L9.44 11.65L10.74 11.14ZM18.17 10.61L18.17 10.61Q18.73 10.79 19.04 11.21L19.04 11.21L19.04 11.21Q19.35 11.63 19.35 12.18L19.35 12.18L19.35 12.18Q19.35 12.47 19.27 12.82L19.27 12.82L19.27 12.82Q19.19 13.17 19.07 13.43L19.07 13.43L16.63 18.24L16.63 18.24Q16.60 18.27 16.51 18.30L16.51 18.30L16.51 18.30Q16.42 18.33 16.35 18.33L16.35 18.33L16.35 18.33Q16.24 18.33 16.13 18.28L16.13 18.28L16.13 18.28Q16.03 18.24 16.02 18.20L16.02 18.20L13.59 12.91L13.59 12.91Q13.24 12.26 12.87 12.26L12.87 12.26L12.87 12.26Q12.73 12.26 12.61 12.36L12.61 12.36L12.61 12.36Q12.49 12.45 12.45 12.47L12.45 12.47L12.32 12.32L12.32 12.32Q12.49 11.79 12.94 11.44L12.94 11.44L12.94 11.44Q13.40 11.09 13.86 11.09L13.86 11.09L13.86 11.09Q14.13 11.09 14.33 11.44L14.33 11.44L14.33 11.44Q14.53 11.79 14.66 12.12L14.66 12.12L14.66 12.12Q14.78 12.45 14.83 12.54L14.83 12.54L16.79 16.90L18.03 14.36L18.03 14.36Q18.05 14.32 18.15 14.06L18.15 14.06L18.15 14.06Q18.26 13.79 18.26 13.54L18.26 13.54L18.26 13.54Q18.26 12.50 17.14 11.98L17.14 11.98L18.17 10.61ZM22.11 6.41L21.63 9.67L21.17 9.84L20.59 6.93L22.11 6.41ZM22.09 11.14L22.09 16.91L22.09 16.91Q22.09 17.12 22.20 17.26L22.20 17.26L22.20 17.26Q22.30 17.39 22.50 17.39L22.50 17.39L22.50 17.39Q22.65 17.39 22.84 17.25L22.84 17.25L22.84 17.25Q23.03 17.11 23.23 16.84L23.23 16.84L23.45 17.05L23.45 17.05Q23.13 17.65 22.67 17.91L22.67 17.91L22.67 17.91Q22.22 18.16 21.84 18.16L21.84 18.16L21.84 18.16Q21.34 18.16 21.06 17.84L21.06 17.84L21.06 17.84Q20.79 17.51 20.79 16.74L20.79 16.74L20.79 11.65L22.09 11.14ZM29.75 10.96L29.75 10.96Q30.31 10.96 30.48 11.38L30.48 11.38L30.48 11.38Q30.65 11.79 30.65 12.52L30.65 12.52L30.65 12.95L30.65 16.91L30.65 16.91Q30.65 17.07 30.74 17.23L30.74 17.23L30.74 17.23Q30.84 17.39 31.02 17.39L31.02 17.39L31.02 17.39Q31.26 17.39 31.43 17.23L31.43 17.23L31.43 17.23Q31.60 17.08 31.77 16.84L31.77 16.84L31.98 17.05L31.98 17.05Q31.77 17.50 31.35 17.83L31.35 17.83L31.35 17.83Q30.93 18.16 30.55 18.16L30.55 18.16L30.55 18.16Q29.99 18.16 29.68 17.81L29.68 17.81L29.68 17.81Q29.37 17.46 29.37 16.74L29.37 16.74L29.37 13.03L29.37 13.03Q29.37 12.82 29.33 12.68L29.33 12.68L29.33 12.68Q29.29 12.54 29.12 12.54L29.12 12.54L29.12 12.54Q28.55 12.54 27.94 13.65L27.94 13.65L27.94 13.65Q27.34 14.76 26.92 16.12L26.92 16.12L26.92 16.12Q26.49 17.49 26.49 17.92L26.49 17.92L25.27 18.28L25.27 12.29L25.27 12.29Q25.27 12.10 25.17 11.94L25.17 11.94L25.17 11.94Q25.06 11.77 24.86 11.77L24.86 11.77L24.86 11.77Q24.53 11.77 24.14 12.38L24.14 12.38L23.93 12.15L23.93 12.15Q24.11 11.65 24.53 11.30L24.53 11.30L24.53 11.30Q24.95 10.96 25.37 10.96L25.37 10.96L25.37 10.96Q25.96 10.96 26.24 11.24L26.24 11.24L26.24 11.24Q26.53 11.52 26.53 12.01L26.53 12.01L26.53 15.69L26.59 15.69L26.59 15.69Q26.96 14.45 27.31 13.52L27.31 13.52L27.31 13.52Q27.66 12.60 28.29 11.78L28.29 11.78L28.29 11.78Q28.92 10.96 29.75 10.96L29.75 10.96ZM36.82 10.96L36.82 10.96Q37.58 10.96 38.08 11.37L38.08 11.37L38.08 11.37Q38.58 11.77 38.58 12.57L38.58 12.57L38.58 12.57Q38.58 13.22 37.89 14.01L37.89 14.01L37.89 14.01Q37.20 14.80 36.27 15.46L36.27 15.46L36.27 15.46Q35.34 16.11 34.68 16.38L34.68 16.38L34.68 16.38Q35.03 16.94 35.48 17.16L35.48 17.16L35.48 17.16Q35.92 17.37 36.53 17.37L36.53 17.37L36.53 17.37Q37.20 17.37 37.86 17.03L37.86 17.03L37.86 17.03Q38.53 16.69 38.96 16.14L38.96 16.14L39.13 16.44L39.13 16.44Q38.44 17.32 37.67 17.79L37.67 17.79L37.67 17.79Q36.90 18.26 35.78 18.26L35.78 18.26L35.78 18.26Q34.93 18.26 34.26 17.84L34.26 17.84L34.26 17.84Q33.59 17.42 33.21 16.71L33.21 16.71L33.21 16.71Q32.83 16.00 32.83 15.18L32.83 15.18L32.83 15.18Q32.83 14.14 33.39 13.16L33.39 13.16L33.39 13.16Q33.95 12.18 34.87 11.57L34.87 11.57L34.87 11.57Q35.80 10.96 36.82 10.96L36.82 10.96ZM36.09 11.84L36.09 11.84Q35.48 11.84 34.99 12.24L34.99 12.24L34.99 12.24Q34.51 12.63 34.24 13.24L34.24 13.24L34.24 13.24Q33.96 13.86 33.96 14.52L33.96 14.52L33.96 14.52Q33.96 15.39 34.37 16.00L34.37 16.00L34.37 16.00Q34.96 15.74 35.64 15.20L35.64 15.20L35.64 15.20Q36.33 14.66 36.81 14.03L36.81 14.03L36.81 14.03Q37.28 13.40 37.28 12.88L37.28 12.88L37.28 12.88Q37.28 11.84 36.09 11.84L36.09 11.84Z"></path></g><defs data-v-423bf9ae=""><linearGradient data-v-423bf9ae="" gradientTransform="rotate(25)" id="6cfe0e66-4f52-43a1-8fe8-ffec7a84c5df" x1="0%" y1="0%" x2="100%" y2="0%"><stop data-v-423bf9ae="" offset="0%" style="stop-color: rgb(90, 90, 45); stop-opacity: 1;"></stop><stop data-v-423bf9ae="" offset="100%" style="stop-color: rgb(13, 227, 13); stop-opacity: 1;"></stop></linearGradient></defs><g data-v-423bf9ae="" id="43b716d6-4c29-4eb4-a1b5-a699bd4728a5" transform="matrix(1.141422152519226,0,0,1.141422152519226,-10.343881607055664,-11.46570110321045)" stroke="none" fill="url(#6cfe0e66-4f52-43a1-8fe8-ffec7a84c5df)"><switch><g><path d="M89.141 35.617C86.25 22.852 77.844 14.405 68.699 10.364c11.371 10.018 21.846 29.405 8.814 47.069-5.406 7.331-16.217 10.228-20.746 8.184 0 0 7.002-1.487 11.357-5.295 8.469-8.017 11.299-20.932 4.52-32.673a25.839 25.839 0 0 0-3.357-4.575c-.018-.021-.033-.042-.051-.062-4.764-5.683-11.307-9.075-18.337-10.116-9.127-1.715-20.896.515-29.71 8.666C11.58 30.45 8.468 41.953 9.542 51.895c2.989-14.858 14.542-33.622 36.355-31.171 9.053 1.019 16.965 8.932 17.461 13.877 0 0-5.277-8.281-18.365-8.281-.24.004-.747.024-.761.024l-.167.01c-8.51.333-16.783 4.784-21.83 13.526a25.819 25.819 0 0 0-2.284 5.195l-.028.074c-2.539 6.968-2.205 14.33.407 20.938 3.079 8.763 10.896 17.841 22.361 21.397 12.502 3.878 24.02.82 32.092-5.079-14.363 4.837-36.389 4.216-45.173-15.899-3.645-8.35-.749-19.159 3.287-22.061 0 0-4.534 8.71 2.012 20.044 4.482 7.484 12.617 12.658 22.949 12.658.498 0 4.488-.311 5.926-.633l.08-.011c7.303-1.286 13.512-5.256 17.928-10.822 6.05-7.046 10.003-18.356 7.349-30.064z"></path></g></switch></g><!----></svg>